<svg width="25" height="24" viewBox="0 0 25 24" fill="none" xmlns="http://www.w3.org/2000/svg">
<g clip-path="url(#clip0_576_981)">
<path d="M24.4999 22.9996C24.4999 23.2648 24.3946 23.5191 24.207 23.7067C24.0195 23.8942 23.7651 23.9996 23.4999 23.9996H1.4999C1.23469 23.9996 0.980332 23.8942 0.792796 23.7067C0.605259 23.5191 0.499903 23.2648 0.499903 22.9996C0.499903 22.7344 0.605259 22.48 0.792796 22.2925C0.980332 22.1049 1.23469 21.9996 1.4999 21.9996H23.4999C23.7651 21.9996 24.0195 22.1049 24.207 22.2925C24.3946 22.48 24.4999 22.7344 24.4999 22.9996ZM0.790903 8.55157C0.575425 8.15189 0.475597 7.70007 0.502623 7.24682C0.529649 6.79356 0.682458 6.35681 0.943903 5.98557C1.37116 5.35868 1.94335 4.84413 2.6119 4.48557L10.1129 0.581567C10.8502 0.198198 11.6689 -0.00195313 12.4999 -0.00195312C13.3309 -0.00195313 14.1496 0.198198 14.8869 0.581567L22.3869 4.48857C23.0555 4.84713 23.6276 5.36168 24.0549 5.98857C24.3164 6.35981 24.4692 6.79656 24.4962 7.24982C24.5232 7.70307 24.4234 8.15489 24.2079 8.55457C23.9759 8.9934 23.628 9.36017 23.202 9.61496C22.776 9.86974 22.2883 10.0028 21.7919 9.99957H21.4999V17.9996H22.4999C22.7651 17.9996 23.0195 18.1049 23.207 18.2925C23.3946 18.48 23.4999 18.7344 23.4999 18.9996C23.4999 19.2648 23.3946 19.5191 23.207 19.7067C23.0195 19.8942 22.7651 19.9996 22.4999 19.9996H2.4999C2.23469 19.9996 1.98033 19.8942 1.7928 19.7067C1.60526 19.5191 1.4999 19.2648 1.4999 18.9996C1.4999 18.7344 1.60526 18.48 1.7928 18.2925C1.98033 18.1049 2.23469 17.9996 2.4999 17.9996H3.4999V9.99957H3.2079C2.71106 10.0027 2.22291 9.86928 1.79669 9.61393C1.37047 9.35859 1.02256 8.99111 0.790903 8.55157ZM5.4999 17.9996H8.4999V9.99957H5.4999V17.9996ZM10.4999 9.99957V17.9996H14.4999V9.99957H10.4999ZM19.4999 9.99957H16.4999V17.9996H19.4999V9.99957ZM2.5629 7.62457C2.62565 7.74025 2.71902 7.83643 2.83278 7.90257C2.94655 7.96872 3.07633 8.00227 3.2079 7.99957H21.7919C21.9235 8.00227 22.0533 7.96872 22.167 7.90257C22.2808 7.83643 22.3742 7.74025 22.4369 7.62457C22.4826 7.54813 22.5047 7.4599 22.5004 7.37094C22.4962 7.28199 22.4657 7.19628 22.4129 7.12457C22.1706 6.76448 21.8451 6.46811 21.4639 6.26057L13.9639 2.35357C13.5119 2.11899 13.0101 1.99654 12.5009 1.99654C11.9917 1.99654 11.4899 2.11899 11.0379 2.35357L3.5379 6.26057C3.15689 6.46878 2.83143 6.76542 2.5889 7.12557C2.53599 7.19697 2.50531 7.2824 2.50068 7.37115C2.49606 7.4599 2.5177 7.54805 2.5629 7.62457Z" fill="#6B7583"/>
</g>
<defs>
<clipPath id="clip0_576_981">
<rect width="24" height="24" fill="white" transform="translate(0.5)"/>
</clipPath>
</defs>
</svg>
