<svg width="20" height="16" viewBox="0 0 20 16" fill="none" xmlns="http://www.w3.org/2000/svg">
<path d="M9.99992 0.666748C11.8959 0.666748 13.6934 1.32453 15.2585 2.5423C16.8235 3.75119 18.156 5.52008 19.1129 7.73341C19.1845 7.9023 19.1845 8.09786 19.1129 8.25786C17.1991 12.6845 13.7918 15.3334 9.99992 15.3334H9.99098C6.20805 15.3334 2.80073 12.6845 0.88691 8.25786C0.815366 8.09786 0.815366 7.9023 0.88691 7.73341C2.80073 3.30675 6.20805 0.666748 9.99098 0.666748H9.99992ZM9.99992 4.44453C8.0235 4.44453 6.42268 6.03564 6.42268 8.00008C6.42268 9.95564 8.0235 11.5467 9.99992 11.5467C11.9674 11.5467 13.5682 9.95564 13.5682 8.00008C13.5682 6.03564 11.9674 4.44453 9.99992 4.44453ZM10.001 5.7759C11.2262 5.7759 12.2278 6.77146 12.2278 7.99813C12.2278 9.2159 11.2262 10.2115 10.001 10.2115C8.76685 10.2115 7.76522 9.2159 7.76522 7.99813C7.76522 7.84701 7.78311 7.70479 7.80993 7.56257H7.85465C8.84733 7.56257 9.65221 6.78035 9.68798 5.80257C9.78636 5.78479 9.89367 5.7759 10.001 5.7759Z" fill="#617796"/>
</svg>
