<svg width="20" height="16" viewBox="0 0 20 16" fill="none" xmlns="http://www.w3.org/2000/svg">
<path d="M16.5727 0.404538C16.8411 0.142823 17.2615 0.142823 17.5208 0.404538C17.7892 0.666254 17.7892 1.09944 17.5208 1.36115L15.893 3.00364C17.1899 4.1949 18.29 5.80129 19.1129 7.73256C19.1845 7.90403 19.1845 8.10257 19.1129 8.26502C17.1988 12.7593 13.7911 15.4486 9.99871 15.4486H9.98977C8.26352 15.4486 6.60883 14.8801 5.15092 13.8423L3.41573 15.593C3.28157 15.7284 3.11163 15.7916 2.94168 15.7916C2.77174 15.7916 2.59286 15.7284 2.46764 15.593C2.24403 15.3674 2.20825 15.0064 2.38714 14.7447L2.41397 14.7086L15.6425 1.36115C15.6604 1.3431 15.6783 1.32505 15.6873 1.307C15.7052 1.28895 15.723 1.27091 15.732 1.25286L16.5727 0.404538ZM10.0011 0.561477C11.2802 0.561477 12.5234 0.868316 13.6683 1.44589L10.6809 4.46013C10.4662 4.42403 10.2337 4.39696 10.0011 4.39696C8.02444 4.39696 6.42342 6.01237 6.42342 8.00682C6.42342 8.24146 6.45025 8.4761 6.48603 8.6927L3.17665 12.0318C2.28222 10.985 1.50407 9.72151 0.886918 8.26854C0.815363 8.10609 0.815363 7.90755 0.886918 7.73608C2.80099 3.2418 6.20876 0.561477 9.99218 0.561477H10.0011ZM12.9503 5.97275L11.9754 6.95644C12.1364 7.26328 12.2258 7.62427 12.2258 8.0033C12.2258 9.23968 11.2241 10.2504 9.99871 10.2504C9.62305 10.2504 9.26528 10.1602 8.96118 9.99775L7.98625 10.9814C8.55868 11.3695 9.25634 11.6041 9.99871 11.6041C11.9665 11.6041 13.5675 9.98873 13.5675 8.0033C13.5675 7.25426 13.3349 6.55033 12.9503 5.97275Z" fill="#617796"/>
</svg>
