<svg width="40" height="40" viewBox="0 0 40 40" fill="none" xmlns="http://www.w3.org/2000/svg">
<path d="M4.94375 15.7812C4.73296 15.7832 4.52541 15.7293 4.34219 15.625C4.2078 15.5495 4.08983 15.4479 3.99517 15.3262C3.90051 15.2045 3.83108 15.0652 3.79092 14.9163C3.75076 14.7675 3.74069 14.6121 3.7613 14.4594C3.78191 14.3066 3.83278 14.1594 3.91094 14.0266C5.41719 11.5125 10 5.64453 20 5.64453C24.3336 5.64453 28.1344 6.78281 31.2914 9.02656C33.8898 10.868 35.3461 12.9523 36.0398 13.9563C36.1278 14.0828 36.1896 14.2257 36.2216 14.3764C36.2535 14.5272 36.255 14.6829 36.2258 14.8342C36.1967 14.9856 36.1376 15.1295 36.052 15.2577C35.9664 15.3859 35.856 15.4956 35.7273 15.5805C35.4644 15.7543 35.1441 15.8189 34.8343 15.7605C34.5246 15.7022 34.2497 15.5255 34.068 15.268C32.8125 13.4625 28.9844 7.96875 20 7.96875C11.2305 7.96875 7.26563 13.0242 5.97422 15.1922C5.87046 15.3732 5.72024 15.5233 5.53908 15.6268C5.35792 15.7304 5.1524 15.7837 4.94375 15.7812Z" fill="#1560BD"/>
<path d="M25.0383 38.75C24.9386 38.7511 24.8391 38.7399 24.7422 38.7164C17.4883 36.9195 14.7797 29.6679 14.6695 29.3664L14.6523 29.3C14.593 29.0906 13.1375 24.1179 15.3719 21.2054C16.3961 19.8773 17.9539 19.196 20.0109 19.196C21.9234 19.196 23.3031 19.7906 24.2516 21.021C25.0328 22.0257 25.3453 23.2648 25.6477 24.4585C26.2828 26.9445 26.7414 28.25 29.3813 28.3843C30.5406 28.4429 31.3023 27.7648 31.7344 27.1875C32.9023 25.6132 33.1055 23.0468 32.225 20.7812C31.0938 17.857 27.0789 12.3437 20 12.3437C16.9781 12.3437 14.2016 13.3148 11.975 15.1398C10.132 16.6515 8.67188 18.7859 7.96875 20.9796C6.66485 25.064 8.375 31.4843 8.39141 31.5429C8.43134 31.6923 8.44095 31.8483 8.41966 32.0014C8.39838 32.1546 8.34664 32.302 8.2675 32.4349C8.18835 32.5678 8.0834 32.6835 7.95883 32.7752C7.83426 32.8668 7.69259 32.9326 7.54219 32.9687C7.23833 33.0495 6.91491 33.0081 6.64124 32.8533C6.36757 32.6985 6.16543 32.4426 6.07813 32.1406C6 31.8476 4.17344 25 5.67969 20.2796C7.32031 15.1648 12.3836 10.0085 20.0023 10.0085C23.5234 10.0085 26.85 11.2054 29.6266 13.4656C31.7766 15.2234 33.5328 17.5843 34.4516 19.9445C35.6195 22.9578 35.3063 26.3398 33.6555 28.5492C32.5555 30.0226 30.9891 30.7929 29.2539 30.7093C24.7336 30.4828 23.9211 27.3273 23.3289 25.0257C22.7195 22.6648 22.3297 21.5265 20.0023 21.5265C18.7242 21.5265 17.8266 21.8781 17.268 22.6062C16.5063 23.6023 16.4469 25.1593 16.5313 26.289C16.5866 27.0761 16.7201 27.8557 16.9297 28.6164C17.1156 29.0851 19.5367 35.0226 25.3352 36.4593C25.485 36.4948 25.6264 36.5598 25.7509 36.6504C25.8755 36.7409 25.9808 36.8554 26.0607 36.987C26.1407 37.1187 26.1937 37.2649 26.2167 37.4172C26.2396 37.5695 26.2321 37.7248 26.1945 37.8742C26.1238 38.1263 25.9725 38.3484 25.7637 38.5065C25.5549 38.6647 25.3002 38.7501 25.0383 38.75Z" fill="#1560BD"/>
<path d="M15.7273 38.2141C15.5648 38.2145 15.4038 38.182 15.254 38.1188C15.1042 38.0556 14.9687 37.9629 14.8555 37.8461C11.9523 34.7993 10.3102 31.3922 9.69219 27.1321V27.1094C9.34531 24.2891 9.85313 20.2961 12.3414 17.5508C14.1781 15.525 16.7602 14.4954 20.0023 14.4954C23.8367 14.4954 26.85 16.2782 28.7289 19.643C30.0922 22.0875 30.3625 24.5235 30.3695 24.6235C30.3838 24.7777 30.3676 24.9332 30.3217 25.081C30.2758 25.2289 30.2012 25.3663 30.1021 25.4853C30.0031 25.6044 29.8815 25.7027 29.7444 25.7746C29.6073 25.8466 29.4573 25.8908 29.3031 25.9047C28.992 25.9385 28.68 25.8485 28.4346 25.6543C28.1892 25.46 28.03 25.1771 27.9914 24.8665C27.7856 23.4049 27.3126 21.9936 26.5961 20.7032C25.1398 18.1336 22.9242 16.8274 19.9937 16.8274C17.4625 16.8274 15.482 17.5891 14.1195 19.093C12.1555 21.261 11.7758 24.6008 12.0453 26.8102C12.5867 30.5774 14.0344 33.5743 16.5906 36.2524C16.6973 36.3634 16.7806 36.4947 16.8355 36.6385C16.8905 36.7823 16.9159 36.9357 16.9104 37.0896C16.9048 37.2434 16.8684 37.3946 16.8033 37.5341C16.7382 37.6736 16.6456 37.7986 16.5313 37.9016C16.311 38.1013 16.0247 38.2126 15.7273 38.2141Z" fill="#1560BD"/>
<path d="M29.1016 34.8578C26.5625 34.8578 24.4039 34.1547 22.6766 32.757C19.2063 29.9609 18.8172 25.407 18.8 25.2148C18.7756 24.8994 18.8774 24.5871 19.0832 24.3468C19.289 24.1064 19.5818 23.9577 19.8973 23.9332C20.2127 23.9088 20.525 24.0106 20.7653 24.2164C21.0057 24.4222 21.1545 24.715 21.1789 25.0305C21.1875 25.0977 21.5344 28.8227 24.2094 30.968C25.7922 32.232 27.9078 32.7336 30.5148 32.4406C30.8264 32.4028 31.1403 32.4899 31.3879 32.6829C31.6354 32.8758 31.7965 33.1589 31.8359 33.4703C31.853 33.6241 31.8393 33.7798 31.7955 33.9283C31.7518 34.0767 31.6789 34.215 31.5812 34.335C31.4834 34.455 31.3628 34.5543 31.2262 34.6271C31.0897 34.7 30.94 34.745 30.7859 34.7594C30.2268 34.8246 29.6644 34.8575 29.1016 34.8578ZM31.1078 3.81172C30.1172 3.16719 26.6047 1.25 20 1.25C13.0672 1.25 9.54609 3.36797 8.76719 3.90625C8.71574 3.93783 8.66759 3.97447 8.62344 4.01562C8.61878 4.02013 8.61271 4.02289 8.60625 4.02344C8.48187 4.13204 8.38207 4.2659 8.3135 4.41611C8.24493 4.56631 8.20916 4.72941 8.20859 4.89453C8.21073 5.04931 8.24339 5.20215 8.3047 5.34428C8.36601 5.48642 8.45476 5.61506 8.56587 5.72284C8.67699 5.83061 8.80827 5.9154 8.95221 5.97234C9.09615 6.02929 9.24991 6.05727 9.40469 6.05469C9.65276 6.05452 9.89484 5.97846 10.0984 5.83672C10.132 5.81172 13.1625 3.58516 20.0023 3.58516C26.8422 3.58516 29.8891 5.80391 29.9219 5.82031C30.1299 5.97456 30.3825 6.05683 30.6414 6.05469C30.7963 6.05706 30.9502 6.02882 31.0941 5.97159C31.2381 5.91436 31.3693 5.82926 31.4803 5.72117C31.5913 5.61309 31.6798 5.48415 31.7409 5.34175C31.8019 5.19936 31.8342 5.04632 31.8359 4.89141C31.836 4.65937 31.7667 4.4326 31.637 4.24022C31.5072 4.04784 31.323 3.89862 31.1078 3.81172Z" fill="#1560BD"/>
</svg>
