<svg width="16" height="20" viewBox="0 0 16 20" fill="none" xmlns="http://www.w3.org/2000/svg">
<path d="M7.98595 0.833252C10.799 0.833252 13.0624 3.04681 13.0624 5.77959V7.18515C14.6412 7.67796 15.7916 9.10721 15.7916 10.8143V15.3398C15.7916 17.4531 14.0395 19.1666 11.8795 19.1666H4.12132C1.96033 19.1666 0.208252 17.4531 0.208252 15.3398V10.8143C0.208252 9.10721 1.35954 7.67796 2.93743 7.18515V5.77959C2.94675 3.04681 5.21019 0.833252 7.98595 0.833252ZM7.99526 11.2688C7.54816 11.2688 7.18489 11.6241 7.18489 12.0613V14.0836C7.18489 14.53 7.54816 14.8852 7.99526 14.8852C8.45168 14.8852 8.81495 14.53 8.81495 14.0836V12.0613C8.81495 11.6241 8.45168 11.2688 7.99526 11.2688ZM8.00458 2.42738C6.11371 2.42738 4.5768 3.9213 4.56749 5.76137V6.98748H11.4323V5.77959C11.4323 3.93041 9.89544 2.42738 8.00458 2.42738Z" fill="#617796"/>
</svg>
