<svg width="20" height="20" viewBox="0 0 20 20" fill="none" xmlns="http://www.w3.org/2000/svg">
<path d="M9.99967 0.832031C15.0688 0.832031 19.1663 4.93961 19.1663 9.9987C19.1663 15.0596 15.0688 19.1654 9.99967 19.1654C4.93967 19.1654 0.833008 15.0596 0.833008 9.9987C0.833008 4.93961 4.93967 0.832031 9.99967 0.832031ZM9.99967 12.6854C9.55967 12.6854 9.20218 13.0429 9.20218 13.4829C9.20218 13.9229 9.55968 14.2896 10.0088 14.2896C10.4488 14.2896 10.8063 13.9229 10.8063 13.4829C10.8063 13.0429 10.4488 12.6854 9.99967 12.6854ZM9.99967 5.71786C9.55967 5.71786 9.19301 6.08545 9.19301 6.52453V10.5762C9.19301 11.0171 9.55967 11.3737 9.99967 11.3737C10.4397 11.3737 10.7972 11.0171 10.7972 10.5762V6.52453C10.7972 6.08545 10.4397 5.71786 9.99967 5.71786Z" fill="#617796"/>
</svg>
