<svg width="20" height="20" viewBox="0 0 20 20" fill="none" xmlns="http://www.w3.org/2000/svg">
<path d="M10.0184 0.833252C15.225 0.833252 19.1667 5.10216 19.1667 9.98615C19.1667 15.6505 14.5467 19.1666 10 19.1666C8.49671 19.1666 6.82837 18.7626 5.49004 17.9731C5.02254 17.6885 4.62837 17.4774 4.12421 17.6426L2.27254 18.1935C1.80504 18.3403 1.38337 17.9731 1.52087 17.4774L2.13504 15.421C2.23587 15.1364 2.21754 14.8334 2.07087 14.5947C1.28254 13.1442 0.833374 11.556 0.833374 10.0137C0.833374 5.18478 4.69254 0.833252 10.0184 0.833252ZM14.2075 8.84777C13.5567 8.84777 13.0342 9.37106 13.0342 10.0229C13.0342 10.6655 13.5567 11.198 14.2075 11.198C14.8584 11.198 15.3809 10.6655 15.3809 10.0229C15.3809 9.37106 14.8584 8.84777 14.2075 8.84777ZM9.98171 8.84777C9.34004 8.83859 8.80837 9.37106 8.80837 10.0137C8.80837 10.6655 9.33087 11.1888 9.98171 11.198C10.6325 11.198 11.155 10.6655 11.155 10.0229C11.155 9.37106 10.6325 8.84777 9.98171 8.84777ZM5.75587 8.84777C5.10504 8.84777 4.58254 9.37106 4.58254 10.0229C4.58254 10.6655 5.11421 11.198 5.75587 11.198C6.40671 11.1888 6.92921 10.6655 6.92921 10.0229C6.92921 9.37106 6.40671 8.84777 5.75587 8.84777Z" fill="#1560BD"/>
</svg>
