<svg width="87" height="92" viewBox="0 0 87 92" fill="none" xmlns="http://www.w3.org/2000/svg">
<path fill-rule="evenodd" clip-rule="evenodd" d="M70.9388 4.96641C71.1543 4.55867 71.5677 4.30509 72.0169 4.30509C72.4662 4.30509 72.8796 4.55877 73.0952 4.96651L75.5855 9.67734C76.0591 10.5733 76.7712 11.31 77.6374 11.8L82.1912 14.3762C82.5854 14.5992 82.8305 15.0268 82.8305 15.4915C82.8305 15.9563 82.5853 16.384 82.1911 16.6069L77.6373 19.1831C76.7712 19.6731 76.0591 20.4098 75.5854 21.3058L73.0951 26.0167C72.8796 26.4244 72.4662 26.678 72.0169 26.678C71.5677 26.678 71.1543 26.4243 70.9387 26.0166L68.4484 21.3058C67.9748 20.4098 67.2626 19.6731 66.3965 19.1831L61.8426 16.6069C61.4485 16.3839 61.2034 15.9563 61.2034 15.4915C61.2034 15.0268 61.4486 14.5991 61.8427 14.3762L66.3965 11.8C67.2627 11.31 67.9748 10.5733 68.4484 9.67728L70.9388 4.96641ZM72.0169 0.237305C70.1302 0.237305 68.3939 1.30232 67.4887 3.01476L64.9984 7.72565C64.8856 7.93895 64.716 8.11435 64.5099 8.23099L59.956 10.8072C58.3007 11.7436 57.2712 13.5398 57.2712 15.4915C57.2712 17.4433 58.3008 19.2395 59.9561 20.176L64.5099 22.7521C64.7161 22.8688 64.8857 23.0442 64.9984 23.2575L67.4887 27.9683C68.3939 29.6808 70.1303 30.7458 72.0169 30.7458C73.9036 30.7458 75.64 29.6807 76.5452 27.9682L79.0355 23.2574C79.1483 23.0441 79.3178 22.8687 79.524 22.7521L84.0778 20.1759C85.7332 19.2395 86.7627 17.4433 86.7627 15.4915C86.7627 13.5398 85.7331 11.7435 84.0777 10.8071L79.524 8.23096C79.3178 8.11432 79.1482 7.93889 79.0355 7.72559L76.5452 3.01476C75.64 1.30231 73.9036 0.237305 72.0169 0.237305ZM4.34021 15.1107C4.34021 11.3808 7.33855 8.35719 11.0372 8.35719H45.8615C46.9711 8.35719 47.8706 7.4501 47.8706 6.33115C47.8706 5.21219 46.9711 4.3051 45.8615 4.3051H11.0372C5.11937 4.3051 0.322021 9.14292 0.322021 15.1107V72.4407V80.9572C0.322021 86.9249 5.11937 91.7627 11.0372 91.7627H71.9797C77.8976 91.7627 82.6949 86.9249 82.6949 80.9572V72.4407V41.4493C82.6949 40.3303 81.7954 39.4232 80.6858 39.4232C79.5762 39.4232 78.6767 40.3303 78.6767 41.4493V70.4068H65.4068V68.0899C65.4068 60.9448 59.6049 55.1526 52.4478 55.1526H30.5691C23.4121 55.1526 17.6102 60.9448 17.6102 68.0899V70.4068H4.34021V15.1107ZM4.34021 80.9572V74.4746H19.6241L19.6297 74.4746L19.6353 74.4746H63.3816L63.3872 74.4746L63.3928 74.4746H78.6767V80.9572C78.6767 84.687 75.6784 87.7106 71.9797 87.7106H11.0372C7.33855 87.7106 4.34021 84.687 4.34021 80.9572ZM61.3676 70.4068H21.6493V68.0899C21.6493 63.1719 25.6428 59.185 30.5691 59.185H52.4478C57.3741 59.185 61.3676 63.1719 61.3676 68.0899V70.4068ZM41.5085 26.5723C36.6761 26.5723 32.7587 30.4897 32.7587 35.322C32.7587 40.1544 36.6761 44.0718 41.5085 44.0718C46.3408 44.0718 50.2582 40.1544 50.2582 35.322C50.2582 30.4897 46.3408 26.5723 41.5085 26.5723ZM28.7966 35.322C28.7966 28.3015 34.4879 22.6102 41.5085 22.6102C48.529 22.6102 54.2203 28.3015 54.2203 35.322C54.2203 42.3426 48.529 48.0339 41.5085 48.0339C34.4879 48.0339 28.7966 42.3426 28.7966 35.322Z" fill="#C1C1C1"/>
</svg>
