<svg width="101" height="49" viewBox="0 0 101 49" fill="none" xmlns="http://www.w3.org/2000/svg">
<path d="M65.1288 44.9729L43.4188 23.2991L65.1288 4.33466L65.1288 44.9729Z" fill="url(#paint0_linear_175_956)"/>
<g clip-path="url(#clip0_175_956)">
<path d="M26.5326 8.24799L27.1367 6.1665" stroke="white" stroke-width="2.16737" stroke-miterlimit="10" stroke-linecap="round"/>
<path d="M36.3116 17.0104L38.3232 16.1837" stroke="white" stroke-width="2.16737" stroke-miterlimit="10" stroke-linecap="round"/>
<path d="M35.5962 30.1289L37.4927 31.1758" stroke="white" stroke-width="2.16737" stroke-miterlimit="10" stroke-linecap="round"/>
<path d="M24.8943 37.7656L25.2695 39.8944" stroke="white" stroke-width="2.16737" stroke-miterlimit="10" stroke-linecap="round"/>
<path d="M13.1969 10.3019L11.9509 8.52979" stroke="white" stroke-width="2.16737" stroke-miterlimit="10" stroke-linecap="round"/>
<path d="M6.78848 21.7682L4.62613 21.6371" stroke="white" stroke-width="2.16737" stroke-miterlimit="10" stroke-linecap="round"/>
<path d="M11.7393 33.9474L10.2828 35.5446" stroke="white" stroke-width="2.16737" stroke-miterlimit="10" stroke-linecap="round"/>
<path d="M31.1815 25.3948C31.112 25.6341 31.0455 25.8631 30.9761 26.1025C30.1041 28.2312 28.4705 29.9589 26.3939 30.9487C24.3173 31.9385 21.9465 32.1194 19.7438 31.4562C17.541 30.7929 15.6642 29.3331 14.4793 27.3613C13.2945 25.3895 12.8864 23.047 13.3348 20.7907C13.3861 20.6138 13.4375 20.4369 13.4888 20.2599C13.794 19.056 14.3383 17.9258 15.0895 16.9367C15.8406 15.9476 16.7832 15.1198 17.861 14.5026C18.9388 13.8855 20.1298 13.4916 21.363 13.3444C22.5963 13.1972 23.8465 13.2997 25.0393 13.6459C26.2321 13.9921 27.343 14.5748 28.3058 15.3593C29.2686 16.1439 30.0637 17.1142 30.6436 18.2125C31.2236 19.3108 31.5765 20.5145 31.6814 21.7521C31.7863 22.9897 31.6411 24.2357 31.2543 25.4159L31.1815 25.3948Z" stroke="white" stroke-width="2.16737" stroke-miterlimit="10"/>
<path d="M31.3826 25.1653C31.3132 25.4046 31.2467 25.6336 31.1772 25.873C29.8638 27.262 28.19 28.2583 26.3429 28.7506C24.4957 29.2429 22.548 29.2117 20.7176 28.6606C18.8871 28.1094 17.246 27.06 15.9778 25.6297C14.7095 24.1994 13.8641 22.4445 13.536 20.5612C13.5873 20.3843 13.6386 20.2074 13.69 20.0305C13.9952 18.8265 14.5395 17.6963 15.2907 16.7072C16.0418 15.7181 16.9843 14.8903 18.0621 14.2731C19.14 13.656 20.331 13.2621 21.5642 13.1149C22.7974 12.9677 24.0477 13.0702 25.2405 13.4164C26.4333 13.7626 27.5441 14.3453 28.507 15.1298C29.4698 15.9144 30.2649 16.8847 30.8448 17.983C31.4248 19.0813 31.7777 20.2851 31.8826 21.5226C31.9875 22.7602 31.8422 24.0062 31.4555 25.1864L31.3826 25.1653Z" fill="white"/>
</g>
<g clip-path="url(#clip1_175_956)">
<path d="M83.4141 35.8203C83.2424 35.3103 82.8767 34.8848 82.3931 34.6322C81.9095 34.3796 81.3451 34.3194 80.8174 34.4641L78.9048 34.9669C78.4299 35.1457 77.912 35.1847 77.4148 35.0791C76.9176 34.9736 76.4626 34.7281 76.1058 34.3727C75.7616 34.0337 75.5199 33.608 75.4074 33.1428C75.2948 32.6775 75.3159 32.1907 75.4683 31.7365L75.7326 30.9593L75.2662 30.0602C75.0647 29.6622 75.0312 29.2024 75.1729 28.7802C75.3123 28.3592 75.284 27.9021 75.0936 27.5007C74.9032 27.0993 74.5649 26.7834 74.1466 26.6164L73.3225 26.2964C73.1429 26.2258 72.9821 26.116 72.8523 25.9755C72.7225 25.835 72.627 25.6673 72.573 25.4853C72.5191 25.3032 72.5081 25.1115 72.541 24.9247C72.5738 24.7378 72.6496 24.5608 72.7627 24.4069L75.1729 21.1002C75.5163 20.6231 75.7009 20.0536 75.7015 19.4698V18.0831C75.7015 6.57828 88.1412 6.65447 88.1412 6.65447C89.5709 6.45208 91.0274 6.52818 92.427 6.87843C93.8266 7.22869 95.142 7.84617 96.2976 8.69554C97.4532 9.54491 98.4265 10.6095 99.1615 11.8281C99.8965 13.0468 100.379 14.3957 100.581 15.7974C101.06 19.0513 100.579 22.3715 99.197 25.3669C98.303 27.0495 97.822 28.9132 97.7923 30.81C97.7626 32.7067 98.185 34.584 99.0259 36.2926L85.0313 40.8641L83.4141 35.8203Z" fill="url(#paint1_linear_175_956)"/>
</g>
<defs>
<linearGradient id="paint0_linear_175_956" x1="37.5907" y1="28.3978" x2="64.264" y2="27.5054" gradientUnits="userSpaceOnUse">
<stop offset="0.388238" stop-color="white" stop-opacity="0.8"/>
<stop offset="1" stop-color="#3B3B3B" stop-opacity="0"/>
</linearGradient>
<linearGradient id="paint1_linear_175_956" x1="76.1292" y1="20.003" x2="104.892" y2="24.112" gradientUnits="userSpaceOnUse">
<stop stop-color="white"/>
<stop offset="0.36022" stop-color="#B7B7B7" stop-opacity="0.478901"/>
<stop offset="0.836264" stop-opacity="0"/>
</linearGradient>
<clipPath id="clip0_175_956">
<rect width="36.3902" height="35.079" fill="white" transform="translate(9.77734) rotate(16.184)"/>
</clipPath>
<clipPath id="clip1_175_956">
<rect width="28.1759" height="34.3011" fill="white" transform="translate(72.6072 6.50195)"/>
</clipPath>
</defs>
</svg>
