<svg width="128" height="128" viewBox="0 0 128 128" fill="none" xmlns="http://www.w3.org/2000/svg">
<path fill-rule="evenodd" clip-rule="evenodd" d="M112.345 32.8015C113.462 33.1724 114.667 32.5685 115.039 31.4523L117.88 22.9275C118.12 22.2042 117.957 21.4074 117.451 20.8373C116.945 20.2673 116.173 20.0106 115.426 20.1637C114.679 20.317 114.071 20.857 113.83 21.5803L110.989 30.1052C110.811 30.6424 110.854 31.2286 111.108 31.7343C111.362 32.2406 111.807 32.6244 112.345 32.8015Z" fill="#6B7583"/>
<path d="M121.953 36.1757L127.511 19.275C128.318 16.7999 127.496 14.0849 125.453 12.4722L126.827 8.29703C127.58 6.17361 127.125 3.80943 125.639 2.11659C124.153 0.423745 121.867 -0.333013 119.664 0.138275C117.461 0.609563 115.686 2.23547 115.022 4.38836L113.645 8.56976C111.035 8.63944 108.753 10.3478 107.951 12.8323L100.911 34.2259H12.8502C5.79088 34.2328 0.0697373 39.954 0.0627441 47.0133V115.213C0.0697373 122.273 5.79088 127.994 12.8502 128.001H115.15C122.209 127.994 127.93 122.273 127.937 115.213V47.0131C127.936 42.6126 125.676 38.5206 121.953 36.1757ZM87.9191 83.9751C88.052 86.2201 89.3939 88.2159 91.4229 89.186L90.091 93.2352C89.7231 94.3534 90.3315 95.5582 91.4496 95.9259C92.5678 96.2937 93.7726 95.6853 94.1403 94.5672L95.4702 90.5179C97.6773 90.971 99.9536 90.1625 101.38 88.4187L106.167 82.7133C106.676 82.1077 107.066 81.4103 107.314 80.6588L113.019 63.3253V115.213H14.9814V47.0131H96.704L87.7528 74.1972C87.499 74.9512 87.3961 75.7479 87.4501 76.5416L87.9191 83.9751ZM119.069 5.73279C119.288 5.06969 119.844 4.57368 120.528 4.43157C121.212 4.28945 121.92 4.52322 122.385 5.04421C122.85 5.5652 123.001 6.29499 122.782 6.95809L121.544 10.7559L119.287 10.0098L117.829 9.52607L119.069 5.73279ZM112 14.1555C112.162 13.664 112.512 13.2567 112.974 13.0236C113.436 12.7906 113.972 12.7509 114.464 12.913L117.714 13.9787L122.213 15.4705H122.236C123.254 15.8182 123.801 16.9221 123.462 17.9428L113.191 49.1592V49.1869L103.266 79.3249C103.189 79.5594 103.066 79.7764 102.906 79.9643L98.1191 85.6717C97.6076 86.2861 96.7712 86.5231 96.0134 86.2683L94.7644 85.857H94.7536L93.5111 85.4479C92.7491 85.1996 92.2176 84.509 92.1727 83.7088L91.7059 76.2686C91.6889 76.0211 91.7216 75.7724 91.8018 75.5376L101.605 45.7151V45.7001L112 14.1555ZM123.675 115.213C123.675 119.921 119.858 123.738 115.15 123.738H12.8502C8.14207 123.738 4.32532 119.921 4.32532 115.213V47.0131C4.32532 42.3049 8.14207 38.4882 12.8502 38.4882H99.5087L98.0999 42.7507H14.9814C12.6272 42.7507 10.7188 44.6591 10.7188 47.0133V115.213C10.7188 117.567 12.6272 119.476 14.9814 119.476H113.018C115.373 119.476 117.281 117.567 117.281 115.213V50.3698L120.555 40.419C122.528 42.0399 123.673 44.4591 123.675 47.0131V115.213Z" fill="#6B7583"/>
<path d="M81.0501 91.7692H76.7875C73.0082 92.0402 69.3651 90.3029 67.1969 87.1954C66.4142 86.0131 65.1003 85.291 63.6826 85.2646C62.3087 85.2833 61.0203 85.9352 60.1916 87.0313L53.2159 96.7243C49.2518 92.7432 44.0187 90.2759 38.4252 89.7509V76.8506H42.6877C47.3959 76.8506 51.2126 73.0338 51.2126 68.3257C51.2126 63.6175 47.3959 59.8008 42.6877 59.8008C37.9796 59.8008 34.1628 63.6175 34.1628 68.3257V72.4943C32.416 72.4661 30.71 71.9614 29.2289 71.0345C28.382 70.2263 27.0418 70.2523 26.2271 71.093C25.4124 71.9334 25.4279 73.2738 26.2621 74.095C26.6712 74.5041 28.8196 76.3668 34.1626 76.7719V89.6383H29.9C25.1919 89.6383 21.3751 93.455 21.3751 98.1632C21.3751 102.871 25.1919 106.688 29.9 106.688C34.6081 106.688 38.4249 102.871 38.4249 98.1632V94.037C42.8381 94.5402 46.9538 96.513 50.1104 99.638C50.9906 100.599 52.2611 101.106 53.5608 101.015C54.8171 100.933 55.9697 100.29 56.698 99.2631L63.6587 89.5596C66.5918 93.8761 71.5772 96.334 76.787 96.0323H81.0496C82.2267 96.0323 83.1808 95.0782 83.1808 93.9011C83.1808 92.724 82.2272 91.7692 81.0501 91.7692ZM38.4252 68.3254C38.4252 65.9712 40.3335 64.0629 42.6877 64.0629C45.0419 64.0629 46.9503 65.9712 46.9503 68.3254C46.9503 70.6796 45.0419 72.588 42.6877 72.588H38.4252V68.3254ZM34.1626 98.1629C34.1626 100.517 32.2542 102.425 29.9 102.425C27.5458 102.425 25.6374 100.517 25.6374 98.1629C25.6374 95.8087 27.5458 93.9003 29.9 93.9003H34.1626V98.1629Z" fill="#6B7583"/>
</svg>
